<svg width="18" height="20" viewBox="0 0 18 20" fill="none" xmlns="http://www.w3.org/2000/svg">
<path d="M9.33317 0C9.70136 0 9.99984 0.298477 9.99984 0.666667V13.9786L14.1842 9.59438C14.4384 9.32803 14.8604 9.31819 15.1268 9.5724C15.3931 9.82661 15.403 10.2486 15.1488 10.515L9.81544 16.103C9.68925 16.2352 9.51432 16.3098 9.33155 16.3093C9.14879 16.3089 8.97422 16.2334 8.84867 16.1006L3.51534 10.4579C3.26243 10.1904 3.27432 9.76841 3.5419 9.5155C3.80948 9.26259 4.23142 9.27448 4.48434 9.54206L8.6665 13.9668V0.666667C8.6665 0.298477 8.96498 0 9.33317 0Z" fill="#999999"/>
<path d="M1.33317 18.6667C0.964981 18.6667 0.666504 18.9651 0.666504 19.3333C0.666504 19.7015 0.964981 20 1.33317 20H17.3332C17.7014 20 17.9998 19.7015 17.9998 19.3333C17.9998 18.9651 17.7014 18.6667 17.3332 18.6667H1.33317Z" fill="#999999"/>
</svg>
