<svg width="20" height="20" viewBox="0 0 20 20" fill="none" xmlns="http://www.w3.org/2000/svg">
<path d="M10.0001 20C8.02231 20 6.08891 19.4135 4.44442 18.3147C2.79993 17.2159 1.51821 15.6541 0.761331 13.8268C0.00445491 11.9996 -0.193578 9.98891 0.192274 8.0491C0.578126 6.10929 1.53053 4.32746 2.92906 2.92894C4.32758 1.53041 6.10941 0.578004 8.04922 0.192152C9.98903 -0.1937 11.9997 0.00433284 13.827 0.761209C15.6542 1.51809 17.216 2.79981 18.3148 4.4443C19.4136 6.08879 20.0001 8.02219 20.0001 10C20.0001 12.6522 18.9466 15.1957 17.0712 17.0711C15.1958 18.9464 12.6523 20 10.0001 20ZM10.0001 1.53847C8.32659 1.53847 6.69064 2.03473 5.29915 2.96449C3.90765 3.89426 2.82312 5.21577 2.18268 6.76191C1.54225 8.30806 1.37468 10.0094 1.70117 11.6508C2.02766 13.2921 2.83355 14.7998 4.01691 15.9832C5.20028 17.1666 6.70798 17.9725 8.34936 18.299C9.99074 18.6254 11.6921 18.4579 13.2382 17.8174C14.7844 17.177 16.1059 16.0925 17.0356 14.701C17.9654 13.3095 18.4617 11.6735 18.4617 10C18.4617 7.75586 17.5702 5.60364 15.9833 4.01679C14.3965 2.42995 12.2443 1.53847 10.0001 1.53847Z" fill="#0077FF"/>
<path d="M10.0001 15.3846C9.79611 15.3846 9.60046 15.3036 9.4562 15.1593C9.31194 15.0151 9.23089 14.8194 9.23089 14.6154V5.38462C9.23089 5.18061 9.31194 4.98495 9.4562 4.84069C9.60046 4.69643 9.79611 4.61539 10.0001 4.61539C10.2041 4.61539 10.3998 4.69643 10.5441 4.84069C10.6883 4.98495 10.7694 5.18061 10.7694 5.38462V14.6154C10.7694 14.8194 10.6883 15.0151 10.5441 15.1593C10.3998 15.3036 10.2041 15.3846 10.0001 15.3846Z" fill="#0077FF"/>
<path d="M14.6155 10.7692H5.38474C5.18073 10.7692 4.98507 10.6882 4.84081 10.5439C4.69655 10.3997 4.61551 10.204 4.61551 10C4.61551 9.79599 4.69655 9.60033 4.84081 9.45607C4.98507 9.31182 5.18073 9.23077 5.38474 9.23077H14.6155C14.8195 9.23077 15.0152 9.31182 15.1594 9.45607C15.3037 9.60033 15.3847 9.79599 15.3847 10C15.3847 10.204 15.3037 10.3997 15.1594 10.5439C15.0152 10.6882 14.8195 10.7692 14.6155 10.7692Z" fill="#0077FF"/>
</svg>
