<svg width="16" height="16" viewBox="0 0 16 16" fill="none" xmlns="http://www.w3.org/2000/svg">
<path d="M1.62865 0.282549C1.25608 -0.0941828 0.65201 -0.0941831 0.279433 0.282549C-0.0931444 0.659281 -0.0931441 1.27008 0.279433 1.64681L6.65071 8.08913L0.45568 14.3531C0.0830983 14.7298 0.083098 15.3406 0.45568 15.7173C0.828262 16.0941 1.43234 16.0941 1.80492 15.7173L7.99993 9.4534L14.1949 15.7175C14.5675 16.0942 15.1715 16.0942 15.5441 15.7175C15.9167 15.3407 15.9167 14.7299 15.5441 14.3532L9.34917 8.08915L15.7206 1.64687C16.0931 1.27015 16.0931 0.659352 15.7206 0.282624C15.348 -0.0941023 14.7439 -0.0941023 14.3713 0.282624L7.99995 6.72489L1.62865 0.282549Z" fill="#999999"/>
</svg>
